# xmcd
#
# Track frame offsets:
#	150
#	20107
#	39936
#	57141
#	74498
#	89365
#	107847
#	126745
#	143811
#	161173
#	182923
#	198035
#
# Disc length: 2877 seconds
# Revision: 0
# Processed by: cddbd v1.5.2PL0 Copyright (c) Steve Scherf et al.
# Submitted via: dBpowerAMP V12.0
#
DISCID=b00b3b0c
DTITLE=Ruben Studdard - Love Is
DYEAR=2009
DGENRE=R&B
TTITLE0=Together
TTITLE1=More Than Words
TTITLE2=Song For Her
TTITLE3=How You Make Me Feel
TTITLE4=Don't Make 'Em Like U No More
TTITLE5=I Can't Help It
TTITLE6=Just Because
TTITLE7=My Love Is A Rock
TTITLE8=The Long And Winding Road
TTITLE9=For The Good Times
TTITLE10=We Got Love (That's Enough)
TTITLE11=Footprints In The Sand
EXTD=
EXTT0=
EXTT1=
EXTT2=
EXTT3=
EXTT4=
EXTT5=
EXTT6=
EXTT7=
EXTT8=
EXTT9=
EXTT10=
EXTT11=
PLAYORDER=
